<svg xmlns="http://www.w3.org/2000/svg" width="25" height="24" fill="none"><path fill="#0099E5" d="M18.51 3H6.154a2.82 2.82 0 0 0-2.823 2.823v12.354A2.82 2.82 0 0 0 6.155 21h12.354a2.828 2.828 0 0 0 2.823-2.796c-1.847-1.03-4.443-2.425-6.895-3.554-1.288 1.767-3.38 3.255-5.97 3.255-2.837 0-3.767-1.82-3.9-3.069-.16-1.567.598-3.274 3.999-3.274 1.421 0 3.188.411 5.108 1.003.664-1.21 1.062-2.425 1.062-2.425h-7.16v-.67h3.7V8.213H6.88V7.45h4.397V5.424h2.046V7.45h4.397v.764h-4.397v1.255h3.566s-.61 1.873-1.54 3.653c1.965.671 4.018 1.448 5.97 2.12v-9.42A2.813 2.813 0 0 0 18.51 3ZM5.231 14.69c.04.81.411 2.159 2.81 2.159 2.091 0 3.72-1.595 4.735-2.93-1.793-.75-3.394-1.261-4.397-1.261-2.71 0-3.188 1.328-3.148 2.032Z"/></svg>