<svg xmlns="http://www.w3.org/2000/svg" width="21" height="24" fill="none"><g clip-path="url(#a)"><path fill="#006FCF" d="m17.432 6.908.64-1.74H21V2H1v20h20v-3.16h-2.76l-1.02-1.192-1.06 1.192H8.32v-6.352H5.732l3.236-7.32h3.148l.76 1.66v-1.66h3.908l.652 1.74h-.004ZM15.224 8.06l-.008-.7.268.7 1.3 3.472h1.292l1.308-3.472.252-.692v4.168h1.36V6.2h-2.26l-1.028 2.708-.272.732-.28-.732L16.124 6.2h-2.26v5.332h1.36V8.06Zm-2.928 3.472h1.568L11.516 6.2h-1.82l-2.36 5.332h1.548l.412-1.028h2.588l.412 1.028Zm-1.972-3.528.268-.668.268.668.552 1.348h-1.64l.552-1.348Zm-.912 4.488v5.312h4.452v-1.152h-3.092v-.928h3.032v-1.148h-3.032v-.932h3.092v-1.152H9.412Zm9.408 5.312h1.768l-2.492-2.668 2.492-2.648h-1.74l-1.608 1.728-1.6-1.728h-1.772l2.488 2.668-2.488 2.648h1.72l1.62-1.732 1.612 1.732Zm.672-2.672L21 16.664v-3.048l-1.508 1.512v.004Z"/></g><defs><clipPath id="a"><path fill="#fff" d="M1 2h20v20H1z"/></clipPath></defs></svg>