<svg xmlns="http://www.w3.org/2000/svg" width="41" height="24" fill="none"><g clip-path="url(#a)"><path fill="#FF5F00" d="M23.916 6.586h-6.49v11.663h6.49V6.586Z"/><path fill="#EB001B" d="M17.836 12.417a7.4 7.4 0 0 1 2.833-5.83 7.417 7.417 0 1 0 0 11.66 7.402 7.402 0 0 1-2.833-5.83Z"/><path fill="#F79E1B" d="M32.669 12.416a7.416 7.416 0 0 1-12.001 5.83 7.418 7.418 0 0 0 0-11.652 7.417 7.417 0 0 1 12.001 5.822ZM31.969 17.014v-.239h.096v-.05h-.245v.05h.097v.239h.052Zm.476 0v-.288h-.075l-.086.206-.087-.206h-.076v.288h.054v-.218l.08.187h.056l.082-.187v.218h.052Z"/></g><defs><clipPath id="a"><path fill="#fff" d="M8.668 5h24v14.834h-24z"/></clipPath></defs></svg>