<svg xmlns="http://www.w3.org/2000/svg" width="41" height="24" fill="none"><path fill="#253B80" d="M15.791 9.991H13.8a.29.29 0 0 0-.274.236l-.804 5.175a.168.168 0 0 0 .037.136.163.163 0 0 0 .127.059h.952a.29.29 0 0 0 .274-.237l.215-1.396a.296.296 0 0 1 .097-.166.289.289 0 0 1 .177-.07h.63c1.313 0 2.07-.643 2.268-1.918a1.591 1.591 0 0 0-.253-1.305c-.286-.337-.787-.514-1.454-.514Zm.23 1.89c-.119.734-.655.734-1.182.734h-.291l.189-1.363a.166.166 0 0 1 .055-.102.162.162 0 0 1 .108-.04h.14c.358 0 .699 0 .874.207a.678.678 0 0 1 .107.563ZM21.745 11.857h-.952a.165.165 0 0 0-.107.04.169.169 0 0 0-.056.102l-.044.271-.067-.097c-.206-.295-.667-.407-1.127-.407a2.178 2.178 0 0 0-1.421.57c-.391.358-.643.846-.708 1.375a1.848 1.848 0 0 0 .355 1.476 1.492 1.492 0 0 0 1.197.501 1.805 1.805 0 0 0 1.32-.555l-.044.27a.174.174 0 0 0 .04.135.168.168 0 0 0 .126.059h.874a.289.289 0 0 0 .274-.236l.515-3.31a.174.174 0 0 0-.042-.138.17.17 0 0 0-.133-.056Zm-1.328 1.883a1.08 1.08 0 0 1-.366.668c-.199.17-.452.26-.711.253a.784.784 0 0 1-.638-.26.823.823 0 0 1-.152-.678c.037-.26.166-.498.362-.669a1.06 1.06 0 0 1 .707-.261.803.803 0 0 1 .638.263.856.856 0 0 1 .16.684ZM26.828 11.86h-.958a.29.29 0 0 0-.23.123l-1.322 1.972-.55-1.895a.295.295 0 0 0-.269-.2h-.95a.165.165 0 0 0-.136.07.17.17 0 0 0-.02.154l1.054 3.138-.99 1.42a.17.17 0 0 0 .133.265h.959a.289.289 0 0 0 .227-.118l3.195-4.664a.17.17 0 0 0-.054-.244.164.164 0 0 0-.089-.021Z"/><path fill="#179BD7" d="M29.998 9.991h-1.992a.296.296 0 0 0-.274.236l-.804 5.175a.168.168 0 0 0 .037.136.163.163 0 0 0 .127.059h1.022c.046 0 .09-.017.126-.047a.2.2 0 0 0 .066-.119l.227-1.476a.296.296 0 0 1 .097-.166.289.289 0 0 1 .177-.07h.63c1.313 0 2.07-.643 2.268-1.918a1.58 1.58 0 0 0-.253-1.305c-.286-.328-.787-.505-1.454-.505Zm.23 1.89c-.107.734-.655.734-1.182.734h-.291l.21-1.352a.168.168 0 0 1 .165-.141h.137c.358 0 .7 0 .874.206a.68.68 0 0 1 .088.552ZM35.954 11.857h-.952a.165.165 0 0 0-.163.142l-.044.271-.067-.097c-.204-.295-.664-.407-1.124-.407a2.178 2.178 0 0 0-1.422.57c-.39.358-.642.846-.708 1.375a1.838 1.838 0 0 0 .356 1.476 1.489 1.489 0 0 0 1.2.493 1.797 1.797 0 0 0 1.32-.555l-.041.268a.168.168 0 0 0 .036.137.162.162 0 0 0 .127.058h.873a.29.29 0 0 0 .274-.236l.516-3.309a.172.172 0 0 0-.047-.136.165.165 0 0 0-.134-.05Zm-1.328 1.883c-.037.261-.167.499-.366.669a1.05 1.05 0 0 1-.712.252.788.788 0 0 1-.638-.26.823.823 0 0 1-.151-.678c.037-.26.165-.498.362-.669a1.06 1.06 0 0 1 .707-.261.803.803 0 0 1 .638.263.842.842 0 0 1 .16.684ZM37.079 10.136l-.819 5.269a.167.167 0 0 0 .094.18.16.16 0 0 0 .07.014h.82a.29.29 0 0 0 .275-.236l.81-5.177a.17.17 0 0 0-.038-.135.166.166 0 0 0-.126-.06h-.92a.171.171 0 0 0-.166.145Z"/><path fill="#253B80" d="m4.45 16.606.15-.98H2.64L3.769 8.39a.086.086 0 0 1 .032-.056.087.087 0 0 1 .058-.023h2.723c.91 0 1.533.191 1.862.57.141.16.241.354.29.563.05.258.05.524 0 .782v.221l.155.09c.118.059.224.14.312.238.136.163.223.361.25.573.035.276.024.557-.035.83-.057.33-.171.647-.337.938a1.903 1.903 0 0 1-.53.59 2.11 2.11 0 0 1-.717.328c-.292.074-.593.11-.894.106h-.213c-.152.001-.3.055-.416.154a.66.66 0 0 0-.216.392l-.017.089-.268 1.73v.061a.06.06 0 0 1-.018.039.05.05 0 0 1-.029 0H4.45Z"/><path fill="#179BD7" d="M9.046 10.254c0 .053-.017.11-.029.162-.358 1.875-1.593 2.524-3.166 2.524H5.05a.385.385 0 0 0-.253.094.394.394 0 0 0-.132.24l-.413 2.644-.117.747a.21.21 0 0 0 .116.22.203.203 0 0 0 .085.02h1.422a.347.347 0 0 0 .338-.295l.014-.072.268-1.724.018-.094a.347.347 0 0 1 .114-.212.338.338 0 0 1 .223-.083h.213c1.378 0 2.455-.567 2.77-2.205.131-.688.064-1.258-.291-1.662a1.383 1.383 0 0 0-.379-.304Z"/><path fill="#222D65" d="M8.666 10.11a1.39 1.39 0 0 0-.169-.045 1.762 1.762 0 0 0-.18-.035 4.36 4.36 0 0 0-.705-.053H5.468a.348.348 0 0 0-.338.295l-.454 2.934v.085a.394.394 0 0 1 .13-.239.384.384 0 0 1 .254-.094h.801c1.573 0 2.808-.65 3.166-2.524 0-.053.02-.11.03-.162a2.3 2.3 0 0 0-.292-.127l-.099-.035Z"/><path fill="#253B80" d="M5.125 10.273a.355.355 0 0 1 .117-.21.347.347 0 0 1 .221-.085h2.144a4.36 4.36 0 0 1 .705.053c.061 0 .122.02.18.035.058.011.114.026.17.044l.081.024c.1.036.197.078.291.127.108-.69 0-1.163-.37-1.591C8.294 8.242 7.531 8 6.582 8H3.858a.384.384 0 0 0-.253.094.394.394 0 0 0-.131.24l-1.139 7.308a.242.242 0 0 0 .134.255.234.234 0 0 0 .1.022h1.683l.425-2.712.448-2.934Z"/></svg>