<svg width="241" height="86" viewBox="0 0 241 86" fill="none" xmlns="http://www.w3.org/2000/svg">
<g clip-path="url(#clip0_127_143)">
<path d="M18.3017 48.2269C18.8362 46.5817 21.1638 46.5817 21.6983 48.2269L25.2119 59.0407C25.451 59.7764 26.1366 60.2746 26.9102 60.2746H38.2805C40.0104 60.2746 40.7296 62.4882 39.3302 63.505L30.1314 70.1883C29.5055 70.643 29.2436 71.449 29.4827 72.1847L32.9963 82.9985C33.5309 84.6437 31.6479 86.0118 30.2484 84.995L21.0496 78.3117C20.4237 77.857 19.5763 77.857 18.9504 78.3117L9.75161 84.995C8.35212 86.0118 6.46913 84.6437 7.00368 82.9985L10.5173 72.1847C10.7564 71.449 10.4945 70.643 9.8686 70.1883L0.669831 63.505C-0.729658 62.4882 -0.0104129 60.2746 1.71945 60.2746H13.0897C13.8634 60.2746 14.549 59.7764 14.7881 59.0407L18.3017 48.2269Z" fill="#F28833" style="fill:#F28833;fill:color(display-p3 0.9490 0.5333 0.2000);fill-opacity:1;"/>
<path d="M68.3017 48.2269C68.8362 46.5817 71.1638 46.5817 71.6983 48.2269L75.2119 59.0407C75.451 59.7764 76.1366 60.2746 76.9102 60.2746H88.2805C90.0104 60.2746 90.7296 62.4882 89.3302 63.505L80.1314 70.1883C79.5055 70.643 79.2436 71.449 79.4827 72.1847L82.9963 82.9985C83.5309 84.6437 81.6479 86.0118 80.2484 84.995L71.0496 78.3117C70.4237 77.857 69.5763 77.857 68.9504 78.3117L59.7516 84.995C58.3521 86.0118 56.4691 84.6437 57.0037 82.9985L60.5173 72.1847C60.7564 71.449 60.4945 70.643 59.8686 70.1883L50.6698 63.505C49.2703 62.4882 49.9896 60.2746 51.7195 60.2746H63.0897C63.8634 60.2746 64.549 59.7764 64.7881 59.0407L68.3017 48.2269Z" fill="#F28833" style="fill:#F28833;fill:color(display-p3 0.9490 0.5333 0.2000);fill-opacity:1;"/>
<path d="M118.302 48.2269C118.836 46.5817 121.164 46.5817 121.698 48.2269L125.212 59.0407C125.451 59.7764 126.137 60.2746 126.91 60.2746H138.281C140.01 60.2746 140.73 62.4882 139.33 63.505L130.131 70.1883C129.506 70.643 129.244 71.449 129.483 72.1847L132.996 82.9985C133.531 84.6437 131.648 86.0118 130.248 84.995L121.05 78.3117C120.424 77.857 119.576 77.857 118.95 78.3117L109.752 84.995C108.352 86.0118 106.469 84.6437 107.004 82.9985L110.517 72.1847C110.756 71.449 110.494 70.643 109.869 70.1883L100.67 63.505C99.2703 62.4882 99.9896 60.2746 101.719 60.2746H113.09C113.863 60.2746 114.549 59.7764 114.788 59.0407L118.302 48.2269Z" fill="#F28833" style="fill:#F28833;fill:color(display-p3 0.9490 0.5333 0.2000);fill-opacity:1;"/>
<path d="M168.302 48.2269C168.836 46.5817 171.164 46.5817 171.698 48.2269L175.212 59.0407C175.451 59.7764 176.137 60.2746 176.91 60.2746H188.281C190.01 60.2746 190.73 62.4882 189.33 63.505L180.131 70.1883C179.506 70.643 179.244 71.449 179.483 72.1847L182.996 82.9985C183.531 84.6437 181.648 86.0118 180.248 84.995L171.05 78.3117C170.424 77.857 169.576 77.857 168.95 78.3117L159.752 84.995C158.352 86.0118 156.469 84.6437 157.004 82.9985L160.517 72.1847C160.756 71.449 160.494 70.643 159.869 70.1883L150.67 63.505C149.27 62.4882 149.99 60.2746 151.719 60.2746H163.09C163.863 60.2746 164.549 59.7764 164.788 59.0407L168.302 48.2269Z" fill="#F28833" style="fill:#F28833;fill:color(display-p3 0.9490 0.5333 0.2000);fill-opacity:1;"/>
<path d="M218.727 48.3652C219.127 47.1313 220.873 47.1313 221.273 48.3652L224.787 59.1787C225.086 60.0984 225.943 60.7207 226.91 60.7207H238.28C239.578 60.7207 240.117 62.381 239.067 63.1436L229.869 69.8271C229.087 70.3955 228.76 71.4026 229.059 72.3223L232.571 83.1367C232.972 84.3706 231.56 85.3964 230.511 84.6338L221.312 77.9502C220.53 77.3818 219.47 77.3818 218.688 77.9502L209.489 84.6338C208.44 85.3964 207.028 84.3706 207.429 83.1367L210.941 72.3223C211.24 71.4026 210.913 70.3955 210.131 69.8271L200.933 63.1436C199.883 62.381 200.422 60.7207 201.72 60.7207H213.09C214.057 60.7207 214.914 60.0984 215.213 59.1787L218.727 48.3652Z" stroke="#F28833" style="stroke:#F28833;stroke:color(display-p3 0.9490 0.5333 0.2000);stroke-opacity:1;" stroke-width="0.892857"/>
<mask id="mask0_127_143" style="mask-type:alpha" maskUnits="userSpaceOnUse" x="195" y="43" width="25" height="50">
<rect x="195" y="43" width="25" height="50" fill="#D9D9D9" style="fill:#D9D9D9;fill:color(display-p3 0.8510 0.8510 0.8510);fill-opacity:1;"/>
</mask>
<g mask="url(#mask0_127_143)">
<path d="M218.302 48.2269C218.836 46.5817 221.164 46.5817 221.698 48.2269L225.212 59.0407C225.451 59.7764 226.137 60.2746 226.91 60.2746H238.281C240.01 60.2746 240.73 62.4882 239.33 63.505L230.131 70.1883C229.506 70.643 229.244 71.449 229.483 72.1847L232.996 82.9985C233.531 84.6437 231.648 86.0118 230.248 84.995L221.05 78.3117C220.424 77.857 219.576 77.857 218.95 78.3117L209.752 84.995C208.352 86.0118 206.469 84.6437 207.004 82.9985L210.517 72.1847C210.756 71.449 210.494 70.643 209.869 70.1883L200.67 63.505C199.27 62.4882 199.99 60.2746 201.719 60.2746H213.09C213.863 60.2746 214.549 59.7764 214.788 59.0407L218.302 48.2269Z" fill="#F28833" style="fill:#F28833;fill:color(display-p3 0.9490 0.5333 0.2000);fill-opacity:1;"/>
</g>
<path d="M0.723145 10.339L11.6949 10.3412L18.3665 10.3424V3.73291L0.723145 10.339Z" fill="#FF9D28" style="fill:#FF9D28;fill:color(display-p3 1.0000 0.6157 0.1569);fill-opacity:1;"/>
<path d="M18.3672 3.73279V27.0675L26.6998 0.611816L18.3672 3.73279Z" fill="#68C5ED" style="fill:#68C5ED;fill:color(display-p3 0.4078 0.7725 0.9294);fill-opacity:1;"/>
<path d="M18.3669 10.342L11.6953 10.3408L18.3669 27.0672V10.342Z" fill="#044D80" style="fill:#044D80;fill:color(display-p3 0.0157 0.3020 0.5020);fill-opacity:1;"/>
<path d="M0.723145 10.3394L13.4057 14.6333L11.6949 10.3415L0.723145 10.3394Z" fill="#E54747" style="fill:#E54747;fill:color(display-p3 0.8980 0.2784 0.2784);fill-opacity:1;"/>
<path d="M41.1408 20.9252C41.044 21.022 40.8829 21.1427 40.6575 21.2876C40.4317 21.4328 40.1379 21.5777 39.7754 21.7228C39.4129 21.8676 38.9696 21.9923 38.4462 22.0974C37.9224 22.2019 37.3225 22.2544 36.6459 22.2544C35.3408 22.2544 34.2129 22.0448 33.2625 21.6262C32.3117 21.2075 31.5263 20.6231 30.9062 19.8741C30.2859 19.1249 29.8309 18.239 29.5409 17.2157C29.2509 16.1927 29.106 15.0691 29.106 13.8445C29.106 12.6204 29.263 11.4883 29.5772 10.4492C29.8913 9.40994 30.3625 8.51211 30.9908 7.75453C31.6192 6.99752 32.4046 6.40535 33.3472 5.97827C34.2896 5.55168 35.3971 5.33789 36.67 5.33789C37.2983 5.33789 37.8662 5.39446 38.3738 5.50704C38.8813 5.61985 39.3242 5.75288 39.703 5.90579C40.0813 6.05911 40.3955 6.21989 40.6454 6.38912C40.895 6.55826 41.0843 6.69957 41.2134 6.81198C41.3584 6.94119 41.4831 7.0941 41.588 7.27112C41.6926 7.44863 41.745 7.64196 41.745 7.8512C41.745 8.17366 41.6242 8.49572 41.3826 8.81785C41.141 9.14032 40.8751 9.43835 40.585 9.71203C40.3917 9.5187 40.1742 9.32163 39.9326 9.12002C39.6909 8.91866 39.4209 8.74164 39.123 8.58832C38.8247 8.43541 38.4863 8.3066 38.108 8.20166C37.7292 8.09704 37.3064 8.04453 36.8393 8.04453C36.0176 8.04453 35.3289 8.20994 34.773 8.53995C34.2172 8.87037 33.7701 9.30118 33.4318 9.83288C33.0935 10.3646 32.8518 10.9728 32.7068 11.6574C32.5618 12.3424 32.4893 13.0391 32.4893 13.7479C32.4893 14.5053 32.5618 15.2302 32.7068 15.9227C32.8517 16.6155 33.1013 17.2279 33.456 17.7594C33.8101 18.291 34.2735 18.7181 34.8455 19.0401C35.4171 19.3627 36.1301 19.5236 36.9842 19.5236C37.435 19.5236 37.8501 19.4673 38.2288 19.3545C38.6071 19.2418 38.9417 19.1047 39.2317 18.9434C39.5217 18.7827 39.7755 18.6136 39.9929 18.4362C40.2104 18.2589 40.3917 18.1061 40.5367 17.9769C40.6334 18.0899 40.7458 18.227 40.875 18.3878C41.0048 18.5504 41.1258 18.7198 41.2375 18.8953C41.35 19.0728 41.4467 19.2499 41.5275 19.4268C41.6079 19.6044 41.6482 19.7653 41.6482 19.91C41.6482 20.1198 41.6079 20.2969 41.5275 20.4418C41.4466 20.5869 41.3178 20.7481 41.1408 20.9252ZM53.5948 19.0718C53.5948 20.3523 53.7809 21.2843 54.1539 21.8678C53.8622 21.981 53.5906 22.0622 53.3394 22.1108C53.088 22.1595 52.8248 22.1837 52.5493 22.1837C51.9659 22.1837 51.524 22.0702 51.2244 21.8434C50.9243 21.6167 50.7339 21.2925 50.6531 20.8709C50.2963 21.2441 49.8263 21.5599 49.2429 21.8193C48.6594 22.0782 47.946 22.2082 47.1035 22.2082C46.6658 22.2082 46.2283 22.1475 45.7906 22.0267C45.3529 21.905 44.9557 21.7074 44.5992 21.4331C44.2425 21.1582 43.9509 20.7906 43.7241 20.3301C43.4969 19.8696 43.3837 19.3082 43.3837 18.6459C43.3837 17.822 43.582 17.1512 43.9793 16.6345C44.3764 16.1172 44.8747 15.7094 45.4746 15.4104C46.0741 15.1117 46.7225 14.9061 47.4196 14.7927C48.1163 14.6795 48.7568 14.607 49.3402 14.5743C49.5348 14.5583 49.725 14.5499 49.9116 14.5499H50.4342V14.1074C50.4342 13.4844 50.2679 13.0418 49.9358 12.7798C49.6034 12.5176 49.0644 12.3862 48.319 12.3862C47.622 12.3862 47.002 12.4998 46.4592 12.7265C45.916 12.9537 45.3852 13.2128 44.8668 13.5046C44.6396 13.2291 44.4571 12.9253 44.3197 12.5928C44.1819 12.2609 44.1131 12.0136 44.1131 11.8513C44.1131 11.6246 44.2384 11.4057 44.4899 11.1949C44.741 10.9845 45.0856 10.7938 45.5232 10.6236C45.9609 10.4534 46.4631 10.3159 47.0307 10.2103C47.5977 10.105 48.1975 10.0523 48.8297 10.0523C49.7049 10.0523 50.4464 10.1415 51.0542 10.3197C51.662 10.4983 52.1563 10.7736 52.5373 11.1463C52.9179 11.5194 53.1895 11.9851 53.3517 12.5442C53.5135 13.1034 53.5948 13.7561 53.5948 14.5013L53.5948 19.0718ZM50.4827 16.2517H50.1425C50.0288 16.2517 49.9152 16.2601 49.8021 16.2761C49.3967 16.3087 48.9955 16.3573 48.5987 16.4218C48.2013 16.4868 47.8487 16.6003 47.5411 16.7623C47.233 16.9245 46.9819 17.1353 46.7874 17.3943C46.5929 17.6538 46.4956 17.9862 46.4956 18.3912C46.4956 18.8451 46.6252 19.2298 46.8846 19.546C47.1436 19.8621 47.5813 20.0201 48.1975 20.0201C48.5052 20.0201 48.797 19.9799 49.0727 19.8984C49.3481 19.8177 49.5912 19.7123 49.8021 19.5826C50.0125 19.4529 50.1789 19.3111 50.3005 19.1569C50.422 19.0031 50.4828 18.8614 50.4828 18.7316L50.4827 16.2517ZM59.6481 11.4622C59.9064 11.1545 60.3106 10.8423 60.8599 10.5262C61.4092 10.2101 62.1039 10.0521 62.9442 10.0521C63.5422 10.0521 64.1117 10.1535 64.6531 10.356C65.194 10.5588 65.6749 10.8871 66.095 11.3407C66.5152 11.7946 66.8504 12.3944 67.101 13.1397C67.3514 13.8855 67.4767 14.8014 67.4767 15.8869C67.4767 17.1511 67.3311 18.1928 67.0404 19.0111C66.7493 19.8299 66.3739 20.4782 65.9137 20.9562C65.4531 21.4343 64.9399 21.7706 64.3746 21.965C63.809 22.1595 63.2434 22.2569 62.6781 22.2569C62.2094 22.2569 61.8013 22.2041 61.4542 22.0989C61.1066 21.9933 60.8118 21.8762 60.5694 21.7463C60.3271 21.6168 60.1414 21.4873 60.0123 21.3573C59.883 21.2277 59.8021 21.1384 59.7699 21.0897V27.0661H56.4634V10.3924C56.5447 10.3765 56.6428 10.3602 56.7574 10.3439C56.8555 10.328 56.9698 10.3157 57.1004 10.3074C57.231 10.2994 57.3862 10.2953 57.5658 10.2953C58.1044 10.2953 58.5618 10.3846 58.9374 10.5627C59.313 10.7413 59.5501 11.0409 59.6481 11.4622ZM64.0243 15.9598C64.0243 15.4737 63.984 15.0201 63.9035 14.5985C63.823 14.1772 63.69 13.8125 63.5046 13.5045C63.3193 13.1967 63.0692 12.9574 62.7551 12.7871C62.4405 12.617 62.0581 12.5321 61.607 12.5321C60.9302 12.5321 60.4588 12.6619 60.1928 12.9209C59.927 13.1804 59.794 13.4642 59.794 13.7719V18.9261C59.9227 19.056 60.1521 19.2097 60.4826 19.388C60.8132 19.5665 61.1956 19.6553 61.631 19.6553C62.453 19.6553 63.0574 19.3314 63.4442 18.6829C63.831 18.0348 64.0243 17.1269 64.0243 15.9598ZM70.0286 20.1417C69.915 19.8177 69.8421 19.4771 69.8098 19.1205C69.7772 18.7641 69.7612 18.4076 69.7612 18.0506V6.76994C69.8744 6.75403 69.996 6.73772 70.1259 6.72132C70.2389 6.70541 70.3606 6.69332 70.4905 6.68488C70.6201 6.67692 70.7496 6.67279 70.8794 6.67279C71.1386 6.67279 71.3981 6.69713 71.6575 6.74567C71.9165 6.79437 72.1516 6.8916 72.3627 7.03737C72.5731 7.18322 72.7432 7.38199 72.8731 7.63303C73.0027 7.88447 73.0676 8.21278 73.0676 8.61762V10.3437H76.4714V12.7994H73.0676V17.9839C73.0676 19.1145 73.5295 19.6796 74.4534 19.6796C74.6803 19.6796 74.8948 19.6433 75.0977 19.5702C75.3002 19.4973 75.4825 19.4164 75.6447 19.3272C75.8067 19.2381 75.9486 19.1449 76.0702 19.0476C76.1918 18.9503 76.2768 18.8775 76.3254 18.8289C76.5685 19.1857 76.7547 19.4945 76.8846 19.7551C77.0141 20.016 77.0791 20.2609 77.0791 20.4897C77.0791 20.7026 76.9942 20.9114 76.8238 21.1157C76.6534 21.3201 76.4143 21.5086 76.1065 21.6802C75.7985 21.8519 75.4259 21.9909 74.9882 22.0973C74.5507 22.2037 74.0723 22.257 73.5538 22.257C72.5486 22.257 71.7668 22.0623 71.2076 21.6735C70.6485 21.2843 70.2553 20.7737 70.0286 20.1417ZM84.8455 19.8256C85.252 19.8256 85.6098 19.7812 85.9191 19.6918C86.228 19.603 86.5044 19.4935 86.7485 19.3638C86.9923 19.2343 87.204 19.0924 87.3829 18.9384C87.5617 18.7845 87.7243 18.6427 87.871 18.5127C88.0659 18.7557 88.2692 19.0681 88.4807 19.4486C88.6921 19.8299 88.7979 20.1417 88.7979 20.3847C88.7979 20.7414 88.5951 21.0656 88.1903 21.3573C87.8499 21.6168 87.3673 21.8396 86.7437 22.0257C86.1195 22.212 85.3859 22.3053 84.5434 22.3053C83.7812 22.3053 83.0318 22.2082 82.2946 22.0136C81.5569 21.8193 80.9003 21.4788 80.3253 20.9924C79.7497 20.5064 79.2836 19.8541 78.9272 19.0355C78.5706 18.2171 78.3924 17.184 78.3924 15.9356C78.3924 14.9144 78.5505 14.0355 78.8663 13.2978C79.1825 12.5605 79.6037 11.9486 80.1309 11.4623C80.6572 10.9761 81.2529 10.6198 81.9176 10.3925C82.582 10.1658 83.2629 10.0522 83.9599 10.0522C84.8675 10.0522 85.6373 10.1943 86.2694 10.4776C86.9017 10.7614 87.416 11.1424 87.8133 11.6203C88.2102 12.0985 88.4979 12.6455 88.6764 13.2614C88.8544 13.8775 88.9438 14.5256 88.9438 15.2063V15.5466C88.9438 15.6766 88.9396 15.8141 88.9316 15.9599C88.9233 16.1059 88.9154 16.248 88.9074 16.3854C88.899 16.5234 88.8868 16.6327 88.8711 16.7137H81.6988C81.7638 17.6052 82.0403 18.3466 82.5281 18.9384C83.0157 19.5301 83.7883 19.8256 84.8455 19.8256ZM85.9534 14.8902C85.9534 14.1122 85.8024 13.4801 85.5009 12.9939C85.1993 12.5077 84.6571 12.2645 83.875 12.2645C83.2063 12.2645 82.6726 12.4955 82.2734 12.9574C81.8737 13.4194 81.6745 14.0636 81.6745 14.8901L85.9534 14.8902ZM94.6978 11.5237C94.7949 11.379 94.9245 11.2183 95.0867 11.0412C95.2486 10.8643 95.4472 10.7035 95.6824 10.5589C95.9172 10.4142 96.1766 10.2933 96.4604 10.1969C96.7437 10.1004 97.0477 10.0522 97.3722 10.0522C97.5666 10.0522 97.7733 10.0685 97.992 10.1004C98.2109 10.1327 98.4133 10.1931 98.5997 10.2812C98.786 10.3698 98.9361 10.4901 99.0496 10.6429C99.1628 10.7956 99.2198 10.9844 99.2198 11.2093C99.2198 11.563 99.1304 11.9691 98.9524 12.4276C98.7738 12.8865 98.5958 13.2778 98.4176 13.6018C98.1417 13.3749 97.8662 13.2007 97.5909 13.0791C97.3151 12.9576 96.991 12.8967 96.6184 12.8967C96.1159 12.8967 95.6946 13.0431 95.3543 13.3355C95.0137 13.628 94.8436 13.9775 94.8436 14.3839V22.2542H91.5373V10.3924C91.6181 10.3765 91.7153 10.3602 91.8289 10.3439C91.9261 10.328 92.0395 10.3157 92.1693 10.3074C92.2989 10.2994 92.4527 10.2953 92.6312 10.2953C93.1498 10.2953 93.5995 10.3958 93.9805 10.5965C94.3611 10.797 94.6005 11.1063 94.6978 11.5237ZM104.098 11.5237C104.196 11.379 104.325 11.2183 104.487 11.0412C104.649 10.8643 104.848 10.7035 105.083 10.5589C105.318 10.4142 105.577 10.2933 105.861 10.1969C106.144 10.1004 106.448 10.0522 106.773 10.0522C106.967 10.0522 107.174 10.0685 107.393 10.1004C107.611 10.1327 107.814 10.1931 108 10.2812C108.187 10.3698 108.336 10.4901 108.45 10.6429C108.564 10.7956 108.62 10.9844 108.62 11.2093C108.62 11.563 108.531 11.9691 108.353 12.4276C108.174 12.8865 107.996 13.2778 107.818 13.6018C107.542 13.3749 107.267 13.2007 106.991 13.0791C106.716 12.9576 106.392 12.8967 106.019 12.8967C105.517 12.8967 105.095 13.0431 104.755 13.3355C104.414 13.628 104.244 13.9775 104.244 14.3839V22.2542H100.938V10.3924C101.019 10.3765 101.116 10.3602 101.23 10.3439C101.327 10.328 101.44 10.3157 101.57 10.3074C101.7 10.2994 101.853 10.2953 102.032 10.2953C102.551 10.2953 103 10.3958 103.381 10.5965C103.762 10.797 104.001 11.1063 104.098 11.5237ZM119.877 19.0718C119.877 20.3523 120.063 21.2843 120.436 21.8678C120.144 21.981 119.873 22.0622 119.622 22.1108C119.37 22.1595 119.107 22.1837 118.832 22.1837C118.248 22.1837 117.806 22.0702 117.507 21.8434C117.207 21.6167 117.016 21.2925 116.935 20.8709C116.579 21.2441 116.109 21.5599 115.525 21.8193C114.942 22.0782 114.228 22.2082 113.386 22.2082C112.948 22.2082 112.511 22.1475 112.073 22.0267C111.635 21.905 111.238 21.7074 110.882 21.4331C110.525 21.1582 110.233 20.7906 110.006 20.3301C109.779 19.8696 109.666 19.3082 109.666 18.6459C109.666 17.822 109.864 17.1512 110.262 16.6345C110.659 16.1172 111.157 15.7094 111.757 15.4104C112.356 15.1117 113.005 14.9061 113.702 14.7927C114.399 14.6795 115.039 14.607 115.623 14.5743C115.817 14.5583 116.007 14.5499 116.194 14.5499H116.717V14.1074C116.717 13.4844 116.55 13.0418 116.218 12.7798C115.886 12.5176 115.347 12.3862 114.601 12.3862C113.904 12.3862 113.284 12.4998 112.742 12.7265C112.198 12.9537 111.668 13.2128 111.149 13.5046C110.922 13.2291 110.739 12.9253 110.602 12.5928C110.464 12.2609 110.395 12.0136 110.395 11.8513C110.395 11.6246 110.521 11.4057 110.772 11.1949C111.023 10.9845 111.368 10.7938 111.805 10.6236C112.243 10.4534 112.745 10.3159 113.313 10.2103C113.88 10.105 114.48 10.0523 115.112 10.0523C115.987 10.0523 116.729 10.1415 117.337 10.3197C117.944 10.4983 118.438 10.7736 118.819 11.1463C119.2 11.5194 119.472 11.9851 119.634 12.5442C119.796 13.1034 119.877 13.7561 119.877 14.5013V19.0718ZM116.765 16.2517H116.425C116.311 16.2517 116.198 16.2601 116.084 16.2761C115.679 16.3087 115.278 16.3573 114.881 16.4218C114.484 16.4868 114.131 16.6003 113.823 16.7623C113.515 16.9245 113.264 17.1353 113.07 17.3943C112.875 17.6538 112.778 17.9862 112.778 18.3912C112.778 18.8451 112.908 19.2298 113.167 19.546C113.426 19.8621 113.864 20.0201 114.48 20.0201C114.788 20.0201 115.079 19.9799 115.355 19.8984C115.631 19.8177 115.874 19.7123 116.084 19.5826C116.295 19.4529 116.461 19.3111 116.583 19.1569C116.704 19.0031 116.765 18.8614 116.765 18.7316L116.765 16.2517Z" fill="black" style="fill:black;fill-opacity:1;"/>
</g>
<defs>
<clipPath id="clip0_127_143">
<rect width="241" height="86" fill="white" style="fill:white;fill-opacity:1;"/>
</clipPath>
</defs>
</svg>
