<svg width="232" height="86" viewBox="0 0 232 86" fill="none" xmlns="http://www.w3.org/2000/svg">
<path d="M16 22.6595L22.9524 20.9308L25.8571 29.7143L16 22.6595ZM32 11.3064H19.7619L16 0L12.2381 11.3064H0L9.90477 18.3145L6.14285 29.6208L16.0476 22.6128L22.1429 18.3145L32 11.3064Z" fill="#219653" style="fill:#219653;fill:color(display-p3 0.1294 0.5882 0.3255);fill-opacity:1;"/>
<path d="M43.627 7.63818V21.8569H40.707V7.63818H43.627ZM48.002 7.63818V9.93311H36.4004V7.63818H48.002ZM51.6445 13.5952V21.8569H48.832V11.2905H51.4785L51.6445 13.5952ZM54.8281 11.2222L54.7793 13.8296C54.6426 13.8101 54.4766 13.7938 54.2812 13.7808C54.0924 13.7612 53.9199 13.7515 53.7637 13.7515C53.3665 13.7515 53.0215 13.8035 52.7285 13.9077C52.4421 14.0054 52.2012 14.1519 52.0059 14.3472C51.8171 14.5425 51.6738 14.7801 51.5762 15.0601C51.485 15.34 51.4329 15.659 51.4199 16.0171L50.8535 15.8413C50.8535 15.1577 50.9219 14.5295 51.0586 13.9565C51.1953 13.3771 51.3939 12.8726 51.6543 12.4429C51.9212 12.0132 52.2467 11.6812 52.6309 11.4468C53.015 11.2124 53.4544 11.0952 53.9492 11.0952C54.1055 11.0952 54.265 11.1082 54.4277 11.1343C54.5905 11.1538 54.724 11.1831 54.8281 11.2222ZM62.4062 19.3276V11.2905H65.2188V21.8569H62.5723L62.4062 19.3276ZM62.7188 17.1597L63.5488 17.1401C63.5488 17.8433 63.4674 18.4976 63.3047 19.103C63.1419 19.702 62.8978 20.2228 62.5723 20.6655C62.2467 21.1017 61.8366 21.4435 61.3418 21.6909C60.847 21.9318 60.2643 22.0522 59.5938 22.0522C59.0794 22.0522 58.6042 21.9806 58.168 21.8374C57.7383 21.6877 57.3672 21.4565 57.0547 21.144C56.7487 20.825 56.5078 20.4181 56.332 19.9233C56.1628 19.422 56.0781 18.8198 56.0781 18.1167V11.2905H58.8906V18.1362C58.8906 18.4487 58.9264 18.7124 58.998 18.9272C59.0762 19.1421 59.1836 19.3179 59.3203 19.4546C59.457 19.5913 59.6165 19.689 59.7988 19.7476C59.9876 19.8062 60.196 19.8354 60.4238 19.8354C61.0033 19.8354 61.459 19.7183 61.791 19.4839C62.1296 19.2495 62.3672 18.9305 62.5039 18.5269C62.6471 18.1167 62.7188 17.661 62.7188 17.1597ZM73.0801 18.937C73.0801 18.7352 73.0215 18.5529 72.9043 18.3901C72.7871 18.2274 72.569 18.0776 72.25 17.9409C71.9375 17.7977 71.485 17.6675 70.8926 17.5503C70.3587 17.4331 69.8607 17.2866 69.3984 17.1108C68.9427 16.9285 68.5456 16.7104 68.207 16.4565C67.875 16.2026 67.6146 15.9032 67.4258 15.5581C67.237 15.2065 67.1426 14.8062 67.1426 14.3569C67.1426 13.9142 67.237 13.4976 67.4258 13.1069C67.6211 12.7163 67.8978 12.3713 68.2559 12.0718C68.6204 11.7658 69.0632 11.5282 69.584 11.3589C70.1113 11.1831 70.7038 11.0952 71.3613 11.0952C72.2793 11.0952 73.0671 11.2417 73.7246 11.5347C74.3887 11.8276 74.8965 12.2313 75.248 12.7456C75.6061 13.2534 75.7852 13.8328 75.7852 14.4839H72.9727C72.9727 14.2104 72.9141 13.9663 72.7969 13.7515C72.6862 13.5301 72.5104 13.3576 72.2695 13.2339C72.0352 13.1037 71.7292 13.0386 71.3516 13.0386C71.0391 13.0386 70.7689 13.0939 70.541 13.2046C70.3132 13.3088 70.1374 13.452 70.0137 13.6343C69.8965 13.8101 69.8379 14.0054 69.8379 14.2202C69.8379 14.383 69.8704 14.5295 69.9355 14.6597C70.0072 14.7834 70.1211 14.8973 70.2773 15.0015C70.4336 15.1056 70.6354 15.2033 70.8828 15.2944C71.1367 15.3791 71.4492 15.4572 71.8203 15.5288C72.582 15.6851 73.2624 15.8901 73.8613 16.144C74.4603 16.3914 74.9355 16.73 75.2871 17.1597C75.6387 17.5828 75.8145 18.1395 75.8145 18.8296C75.8145 19.2983 75.7103 19.728 75.502 20.1187C75.2936 20.5093 74.9941 20.8511 74.6035 21.144C74.2129 21.4305 73.7441 21.6551 73.1973 21.8179C72.6569 21.9741 72.0482 22.0522 71.3711 22.0522C70.388 22.0522 69.5547 21.8765 68.8711 21.5249C68.194 21.1733 67.6797 20.7274 67.3281 20.187C66.9831 19.6401 66.8105 19.0802 66.8105 18.5073H69.4766C69.4896 18.8914 69.5872 19.2007 69.7695 19.4351C69.9583 19.6694 70.196 19.8387 70.4824 19.9429C70.7754 20.047 71.0911 20.0991 71.4297 20.0991C71.7943 20.0991 72.097 20.0503 72.3379 19.9526C72.5788 19.8485 72.7611 19.7118 72.8848 19.5425C73.015 19.3667 73.0801 19.1649 73.0801 18.937ZM82.8164 11.2905V13.2827H76.6641V11.2905H82.8164ZM78.1875 8.68311H81V18.6733C81 18.9793 81.0391 19.2137 81.1172 19.3765C81.2018 19.5392 81.3255 19.6532 81.4883 19.7183C81.651 19.7769 81.8561 19.8062 82.1035 19.8062C82.2793 19.8062 82.4355 19.7996 82.5723 19.7866C82.7155 19.7671 82.8359 19.7476 82.9336 19.728L82.9434 21.7983C82.7025 21.8765 82.4421 21.9383 82.1621 21.9839C81.8822 22.0295 81.5729 22.0522 81.2344 22.0522C80.6159 22.0522 80.0755 21.9513 79.6133 21.7495C79.1576 21.5412 78.806 21.2091 78.5586 20.7534C78.3112 20.2977 78.1875 19.6987 78.1875 18.9565V8.68311ZM87.2305 13.3218V25.9194H84.418V11.2905H87.0254L87.2305 13.3218ZM93.9199 16.4565V16.6616C93.9199 17.4299 93.8288 18.1427 93.6465 18.8003C93.4707 19.4578 93.2103 20.0308 92.8652 20.519C92.5202 21.0008 92.0905 21.3784 91.5762 21.6519C91.0684 21.9188 90.4824 22.0522 89.8184 22.0522C89.1738 22.0522 88.6139 21.922 88.1387 21.6616C87.6634 21.4012 87.263 21.0366 86.9375 20.5679C86.6185 20.0926 86.3613 19.5425 86.166 18.9175C85.9707 18.2925 85.821 17.6219 85.7168 16.9058V16.3687C85.821 15.6004 85.9707 14.8973 86.166 14.2593C86.3613 13.6147 86.6185 13.0581 86.9375 12.5894C87.263 12.1141 87.6602 11.7463 88.1289 11.4858C88.6042 11.2254 89.1608 11.0952 89.7988 11.0952C90.4694 11.0952 91.0586 11.2222 91.5664 11.4761C92.0807 11.73 92.5104 12.0946 92.8555 12.5698C93.207 13.0451 93.4707 13.6115 93.6465 14.269C93.8288 14.9266 93.9199 15.6558 93.9199 16.4565ZM91.0977 16.6616V16.4565C91.0977 16.0073 91.0586 15.5939 90.9805 15.2163C90.9089 14.8322 90.7917 14.4969 90.6289 14.2104C90.4727 13.924 90.2643 13.7026 90.0039 13.5464C89.75 13.3836 89.4408 13.3022 89.0762 13.3022C88.6921 13.3022 88.3633 13.3641 88.0898 13.4878C87.8229 13.6115 87.6048 13.7905 87.4355 14.0249C87.2663 14.2593 87.1393 14.5392 87.0547 14.8647C86.9701 15.1903 86.918 15.5581 86.8984 15.9683V17.3257C86.931 17.8075 87.0221 18.2404 87.1719 18.6245C87.3216 19.0021 87.5527 19.3016 87.8652 19.5229C88.1777 19.7443 88.5879 19.855 89.0957 19.855C89.4668 19.855 89.7793 19.7736 90.0332 19.6108C90.2871 19.4416 90.4922 19.2104 90.6484 18.9175C90.8112 18.6245 90.9251 18.286 90.9902 17.9019C91.0618 17.5177 91.0977 17.1043 91.0977 16.6616ZM98.6367 11.2905V21.8569H95.8145V11.2905H98.6367ZM95.6387 8.53662C95.6387 8.12646 95.7819 7.78792 96.0684 7.521C96.3548 7.25407 96.7389 7.12061 97.2207 7.12061C97.696 7.12061 98.0768 7.25407 98.3633 7.521C98.6562 7.78792 98.8027 8.12646 98.8027 8.53662C98.8027 8.94678 98.6562 9.28532 98.3633 9.55225C98.0768 9.81917 97.696 9.95264 97.2207 9.95264C96.7389 9.95264 96.3548 9.81917 96.0684 9.55225C95.7819 9.28532 95.6387 8.94678 95.6387 8.53662ZM103.93 6.85693V21.8569H101.107V6.85693H103.93ZM105.805 16.6812V16.4761C105.805 15.7013 105.915 14.9884 106.137 14.3374C106.358 13.6799 106.68 13.1102 107.104 12.6284C107.527 12.1466 108.048 11.7723 108.666 11.5054C109.285 11.2319 109.994 11.0952 110.795 11.0952C111.596 11.0952 112.309 11.2319 112.934 11.5054C113.559 11.7723 114.083 12.1466 114.506 12.6284C114.936 13.1102 115.261 13.6799 115.482 14.3374C115.704 14.9884 115.814 15.7013 115.814 16.4761V16.6812C115.814 17.4494 115.704 18.1623 115.482 18.8198C115.261 19.4709 114.936 20.0405 114.506 20.5288C114.083 21.0106 113.562 21.3849 112.943 21.6519C112.325 21.9188 111.615 22.0522 110.814 22.0522C110.014 22.0522 109.301 21.9188 108.676 21.6519C108.057 21.3849 107.533 21.0106 107.104 20.5288C106.68 20.0405 106.358 19.4709 106.137 18.8198C105.915 18.1623 105.805 17.4494 105.805 16.6812ZM108.617 16.4761V16.6812C108.617 17.1239 108.656 17.5373 108.734 17.9214C108.812 18.3055 108.936 18.644 109.105 18.937C109.281 19.2235 109.509 19.4481 109.789 19.6108C110.069 19.7736 110.411 19.855 110.814 19.855C111.205 19.855 111.54 19.7736 111.82 19.6108C112.1 19.4481 112.325 19.2235 112.494 18.937C112.663 18.644 112.787 18.3055 112.865 17.9214C112.95 17.5373 112.992 17.1239 112.992 16.6812V16.4761C112.992 16.0464 112.95 15.6427 112.865 15.2651C112.787 14.881 112.66 14.5425 112.484 14.2495C112.315 13.95 112.09 13.7157 111.811 13.5464C111.531 13.3771 111.192 13.2925 110.795 13.2925C110.398 13.2925 110.059 13.3771 109.779 13.5464C109.506 13.7157 109.281 13.95 109.105 14.2495C108.936 14.5425 108.812 14.881 108.734 15.2651C108.656 15.6427 108.617 16.0464 108.617 16.4761ZM122.719 11.2905V13.2827H116.566V11.2905H122.719ZM118.09 8.68311H120.902V18.6733C120.902 18.9793 120.941 19.2137 121.02 19.3765C121.104 19.5392 121.228 19.6532 121.391 19.7183C121.553 19.7769 121.758 19.8062 122.006 19.8062C122.182 19.8062 122.338 19.7996 122.475 19.7866C122.618 19.7671 122.738 19.7476 122.836 19.728L122.846 21.7983C122.605 21.8765 122.344 21.9383 122.064 21.9839C121.785 22.0295 121.475 22.0522 121.137 22.0522C120.518 22.0522 119.978 21.9513 119.516 21.7495C119.06 21.5412 118.708 21.2091 118.461 20.7534C118.214 20.2977 118.09 19.6987 118.09 18.9565V8.68311Z" fill="black" style="fill:black;fill-opacity:1;"/>
<rect width="40" height="40" transform="translate(0 45.7144)" fill="#219653" style="fill:#219653;fill:color(display-p3 0.1294 0.5882 0.3255);fill-opacity:1;"/>
<path d="M20 73.0666L26.0833 71.4376L28.625 79.7144L20 73.0666ZM34 62.3684H23.2917L20 51.7144L16.7083 62.3684H6L14.6667 68.9722L11.375 79.6263L20.0417 73.0225L25.375 68.9722L34 62.3684Z" fill="white" style="fill:white;fill-opacity:1;"/>
<rect width="40" height="40" transform="translate(48 45.7144)" fill="#219653" style="fill:#219653;fill:color(display-p3 0.1294 0.5882 0.3255);fill-opacity:1;"/>
<path d="M68 73.0666L74.0833 71.4376L76.625 79.7144L68 73.0666ZM82 62.3684H71.2917L68 51.7144L64.7083 62.3684H54L62.6667 68.9722L59.375 79.6263L68.0417 73.0225L73.375 68.9722L82 62.3684Z" fill="white" style="fill:white;fill-opacity:1;"/>
<rect width="40" height="40" transform="translate(96 45.7144)" fill="#219653" style="fill:#219653;fill:color(display-p3 0.1294 0.5882 0.3255);fill-opacity:1;"/>
<path d="M116 73.0666L122.083 71.4376L124.625 79.7144L116 73.0666ZM130 62.3684H119.292L116 51.7144L112.708 62.3684H102L110.667 68.9722L107.375 79.6263L116.042 73.0225L121.375 68.9722L130 62.3684Z" fill="white" style="fill:white;fill-opacity:1;"/>
<rect width="40" height="40" transform="translate(144 45.7144)" fill="#219653" style="fill:#219653;fill:color(display-p3 0.1294 0.5882 0.3255);fill-opacity:1;"/>
<path d="M164 73.0666L170.083 71.4376L172.625 79.7144L164 73.0666ZM178 62.3684H167.292L164 51.7144L160.708 62.3684H150L158.667 68.9722L155.375 79.6263L164.042 73.0225L169.375 68.9722L178 62.3684Z" fill="white" style="fill:white;fill-opacity:1;"/>
<rect width="40" height="40" transform="translate(192 45.7144)" fill="#219653" style="fill:#219653;fill:color(display-p3 0.1294 0.5882 0.3255);fill-opacity:1;"/>
<path d="M212 73.0666L218.083 71.4376L220.625 79.7144L212 73.0666ZM226 62.3684H215.292L212 51.7144L208.708 62.3684H198L206.667 68.9722L203.375 79.6263L212.042 73.0225L217.375 68.9722L226 62.3684Z" fill="white" style="fill:white;fill-opacity:1;"/>
</svg>
