<svg xmlns="http://www.w3.org/2000/svg" width="800" height="450" viewBox="0 0 800 450">
  <rect width="800" height="450" fill="#CCF5E8"/>
  <rect x="120" y="280" width="30" height="80" rx="4" fill="#1ad79f" opacity=".3"/>
  <rect x="170" y="250" width="30" height="110" rx="4" fill="#1ad79f" opacity=".4"/>
  <rect x="220" y="300" width="30" height="60" rx="4" fill="#1ad79f" opacity=".35"/>
  <rect x="270" y="230" width="30" height="130" rx="4" fill="#1ad79f" opacity=".5"/>
  <rect x="320" y="270" width="30" height="90" rx="4" fill="#1ad79f" opacity=".45"/>
  <rect x="370" y="200" width="30" height="160" rx="4" fill="#1ad79f" opacity=".6"/>
  <rect x="420" y="250" width="30" height="110" rx="4" fill="#1ad79f" opacity=".5"/>
  <rect x="470" y="220" width="30" height="140" rx="4" fill="#1ad79f" opacity=".55"/>
  <rect x="520" y="290" width="30" height="70" rx="4" fill="#1ad79f" opacity=".4"/>
  <rect x="570" y="240" width="30" height="120" rx="4" fill="#1ad79f" opacity=".45"/>
  <rect x="620" y="270" width="30" height="90" rx="4" fill="#1ad79f" opacity=".35"/>
  <path d="M0 350 Q200 300 400 350 T800 350" fill="none" stroke="#1ad79f" stroke-width="2" opacity=".2"/>
  <path d="M0 370 Q200 330 400 370 T800 370" fill="none" stroke="#1ad79f" stroke-width="1.5" opacity=".15"/>
</svg>
