<svg xmlns="http://www.w3.org/2000/svg" width="800" height="450" viewBox="0 0 800 450">
  <rect width="800" height="450" fill="#CCF5E8"/>
  <path d="M0 350 Q150 280 300 330 T600 300 T800 340" fill="none" stroke="#1ad79f" stroke-width="3" opacity=".5"/>
  <path d="M0 370 Q180 310 350 350 T600 330 T800 360" fill="none" stroke="#1ad79f" stroke-width="2" opacity=".3"/>
  <path d="M0 390 Q200 340 400 370 T700 350 T800 380" fill="none" stroke="#1ad79f" stroke-width="1.5" opacity=".2"/>
  <circle cx="150" cy="120" r="60" fill="none" stroke="#1ad79f" stroke-width="2" opacity=".2"/>
  <circle cx="400" cy="80" r="80" fill="none" stroke="#1ad79f" stroke-width="2" opacity=".25"/>
  <circle cx="650" cy="140" r="50" fill="none" stroke="#1ad79f" stroke-width="2" opacity=".2"/>
  <circle cx="150" cy="120" r="8" fill="#1ad79f" opacity=".5"/>
  <circle cx="400" cy="80" r="10" fill="#1ad79f" opacity=".6"/>
  <circle cx="650" cy="140" r="6" fill="#1ad79f" opacity=".45"/>
  <line x1="150" y1="120" x2="400" y2="80" stroke="#1ad79f" stroke-width="1.5" opacity=".2"/>
  <line x1="400" y1="80" x2="650" y2="140" stroke="#1ad79f" stroke-width="1.5" opacity=".2"/>
  <line x1="150" y1="120" x2="650" y2="140" stroke="#1ad79f" stroke-width="1" opacity=".12"/>
</svg>
