<svg xmlns="http://www.w3.org/2000/svg" width="800" height="450" viewBox="0 0 800 450">
  <rect width="800" height="450" fill="#CCF5E8"/>
  <rect x="150" y="180" width="60" height="80" rx="8" fill="none" stroke="#1ad79f" stroke-width="2" opacity=".4"/>
  <rect x="320" y="170" width="60" height="100" rx="8" fill="none" stroke="#1ad79f" stroke-width="2" opacity=".5"/>
  <rect x="490" y="190" width="60" height="70" rx="8" fill="none" stroke="#1ad79f" stroke-width="2" opacity=".45"/>
  <rect x="180" y="220" width="200" height="2" fill="#1ad79f" opacity=".3"/>
  <rect x="350" y="220" width="200" height="2" fill="#1ad79f" opacity=".35"/>
  <polygon points="560,220 545,210 545,230" fill="#1ad79f" opacity=".4"/>
  <circle cx="180" cy="220" r="4" fill="#1ad79f" opacity=".5"/>
  <circle cx="350" cy="220" r="4" fill="#1ad79f" opacity=".6"/>
  <circle cx="125" cy="100" r="3" fill="#1ad79f" opacity=".25"/>
  <circle cx="650" cy="360" r="5" fill="#1ad79f" opacity=".2"/>
  <circle cx="700" cy="80" r="3" fill="#1ad79f" opacity=".2"/>
  <path d="M0 400 Q200 360 400 390 T800 380" fill="none" stroke="#1ad79f" stroke-width="1.5" opacity=".15"/>
  <path d="M0 420 Q200 390 400 415 T800 405" fill="none" stroke="#1ad79f" stroke-width="1" opacity=".1"/>
</svg>
