<svg xmlns="http://www.w3.org/2000/svg" width="800" height="450" viewBox="0 0 800 450">
  <rect width="800" height="450" fill="#CCF5E8"/>
  <circle cx="400" cy="100" r="30" fill="none" stroke="#1ad79f" stroke-width="2" opacity=".5"/>
  <circle cx="300" cy="250" r="25" fill="none" stroke="#1ad79f" stroke-width="2" opacity=".4"/>
  <circle cx="500" cy="250" r="25" fill="none" stroke="#1ad79f" stroke-width="2" opacity=".4"/>
  <circle cx="200" cy="370" r="20" fill="none" stroke="#1ad79f" stroke-width="2" opacity=".35"/>
  <circle cx="400" cy="370" r="20" fill="none" stroke="#1ad79f" stroke-width="2" opacity=".35"/>
  <circle cx="600" cy="370" r="20" fill="none" stroke="#1ad79f" stroke-width="2" opacity=".35"/>
  <line x1="400" y1="130" x2="300" y2="225" stroke="#1ad79f" stroke-width="1.5" opacity=".3"/>
  <line x1="400" y1="130" x2="500" y2="225" stroke="#1ad79f" stroke-width="1.5" opacity=".3"/>
  <line x1="300" y1="275" x2="200" y2="350" stroke="#1ad79f" stroke-width="1.5" opacity=".25"/>
  <line x1="300" y1="275" x2="400" y2="350" stroke="#1ad79f" stroke-width="1.5" opacity=".25"/>
  <line x1="500" y1="275" x2="400" y2="350" stroke="#1ad79f" stroke-width="1.5" opacity=".25"/>
  <line x1="500" y1="275" x2="600" y2="350" stroke="#1ad79f" stroke-width="1.5" opacity=".25"/>
  <circle cx="400" cy="100" r="5" fill="#1ad79f" opacity=".8"/>
  <circle cx="300" cy="250" r="4" fill="#1ad79f" opacity=".7"/>
  <circle cx="500" cy="250" r="4" fill="#1ad79f" opacity=".7"/>
  <circle cx="200" cy="370" r="3" fill="#1ad79f" opacity=".6"/>
  <circle cx="400" cy="370" r="3" fill="#1ad79f" opacity=".6"/>
  <circle cx="600" cy="370" r="3" fill="#1ad79f" opacity=".6"/>
</svg>
