<svg xmlns="http://www.w3.org/2000/svg" width="800" height="450" viewBox="0 0 800 450">
  <rect width="800" height="450" fill="#CCF5E8"/>
  <path d="M400 340 L280 280 V200 C280 160 330 120 400 100 C470 120 520 160 520 200 V280 Z" fill="none" stroke="#1ad79f" stroke-width="2.5" opacity=".5"/>
  <path d="M400 320 L300 270 V205 C300 175 340 145 400 130 C460 145 500 175 500 205 V270 Z" fill="none" stroke="#1ad79f" stroke-width="1.5" opacity=".3"/>
  <circle cx="400" cy="220" r="8" fill="#1ad79f" opacity=".6"/>
  <circle cx="350" cy="250" r="4" fill="#1ad79f" opacity=".4"/>
  <circle cx="450" cy="250" r="4" fill="#1ad79f" opacity=".4"/>
  <circle cx="420" cy="190" r="3" fill="#1ad79f" opacity=".3"/>
  <circle cx="370" cy="180" r="3" fill="#1ad79f" opacity=".3"/>
  <circle cx="100" cy="80" r="5" fill="#1ad79f" opacity=".3"/>
  <circle cx="680" cy="100" r="4" fill="#1ad79f" opacity=".25"/>
  <circle cx="150" cy="380" r="6" fill="#1ad79f" opacity=".2"/>
  <circle cx="660" cy="360" r="3" fill="#1ad79f" opacity=".25"/>
</svg>
