<svg preserveAspectRatio="none" width="100%" height="100%" overflow="visible" style="display: block;" viewBox="0 0 24 24" fill="none" xmlns="http://www.w3.org/2000/svg">
<g id="Frame" stroke="var(--stroke-0, #FFB83F)" stroke-width="2" stroke-linecap="round" stroke-linejoin="round">
<path id="Vector" d="M21 8a2 2 0 0 0-1-1.73l-7-4a2 2 0 0 0-2 0l-7 4A2 2 0 0 0 3 8v8a2 2 0 0 0 1 1.73l7 4a2 2 0 0 0 2 0l7-4A2 2 0 0 0 21 16Z"/>
<path id="Vector_2" d="m3.3 7 8.7 5 8.7-5"/>
<path id="Vector_3" d="M12 22V12"/>
</g>
</svg>
